HIERARCHY
ROOT root
{
	OFFSET	0	13.1	24.9
	CHANNELS 6  Xposition Yposition Zposition Xrotation Yrotation Zrotation
	JOINT spine_1
	{
		OFFSET	0	9.99999	0
		CHANNELS 3  Xrotation Yrotation Zrotation
		JOINT spine_2
		{
			OFFSET	0	112	-10
			CHANNELS 3  Xrotation Yrotation Zrotation
			JOINT spine_3
			{
				OFFSET	0	206.5	19.3
				CHANNELS 3  Xrotation Yrotation Zrotation
				JOINT spine_4
				{
					OFFSET	0	110.4	14.6
					CHANNELS 3  Xrotation Yrotation Zrotation
					JOINT neck_1
					{
						OFFSET	0	71.8	-50.3
						CHANNELS 3  Xrotation Yrotation Zrotation
						JOINT neck_2
						{
							OFFSET	0	86.2	-25.8
							CHANNELS 3  Xrotation Yrotation Zrotation
							JOINT head_ee
							{
								OFFSET	0	179.8	-8.7
								CHANNELS 3  Xrotation Yrotation Zrotation
								End Site
								{
									OFFSET	1	0	0
								}
							}
						}
					}
					JOINT left_clavicle
					{
						OFFSET	-43.2	22.4	-70.8
						CHANNELS 3  Xrotation Yrotation Zrotation
						JOINT left_shoulder
						{
							OFFSET	-93.9	-5.79999	48.7
							CHANNELS 3  Xrotation Yrotation Zrotation
							JOINT left_elbow
							{
								OFFSET	-291.4	-30.8	15.2
								CHANNELS 3  Xrotation Yrotation Zrotation
								JOINT left_lowarm_twist
								{
									OFFSET	-110.7	-3.89999	13.6
									CHANNELS 3  Xrotation Yrotation Zrotation
									JOINT left_hand
									{
										OFFSET	-110.7	-3.89999	13.6
										CHANNELS 3  Xrotation Yrotation Zrotation
										JOINT left_ee
										{
											OFFSET	-80.8	-5.10001	12.1
											CHANNELS 3  Xrotation Yrotation Zrotation
											End Site
											{
												OFFSET	1	0	0
											}
										}
									}
								}
							}
						}
					}
					JOINT right_clavicle
					{
						OFFSET	43.2	22.4	-70.8
						CHANNELS 3  Xrotation Yrotation Zrotation
						JOINT right_shoulder
						{
							OFFSET	93.9	-5.79999	48.7
							CHANNELS 3  Xrotation Yrotation Zrotation
							JOINT right_elbow
							{
								OFFSET	291.4	-30.8	15.2
								CHANNELS 3  Xrotation Yrotation Zrotation
								JOINT right_lowarm_twist
								{
									OFFSET	110.7	-3.89999	13.6
									CHANNELS 3  Xrotation Yrotation Zrotation
									JOINT right_hand
									{
										OFFSET	110.7	-3.89999	13.6
										CHANNELS 3  Xrotation Yrotation Zrotation
										JOINT right_ee
										{
											OFFSET	80.8	-5.10001	12.1
											CHANNELS 3  Xrotation Yrotation Zrotation
											End Site
											{
												OFFSET	1	0	0
											}
										}
									}
								}
							}
						}
					}
				}
			}
		}
	}
	JOINT left_hip
	{
		OFFSET	-82.8	-127.5	0.300001
		CHANNELS 3  Xrotation Yrotation Zrotation
		JOINT left_knee
		{
			OFFSET	-28.2	-396.7	2.2
			CHANNELS 3  Xrotation Yrotation Zrotation
			JOINT left_ankle
			{
				OFFSET	-11.7	-411.3	35.4
				CHANNELS 3  Xrotation Yrotation Zrotation
				JOINT left_toes
				{
					OFFSET	0	-60	-88.6
					CHANNELS 3  Xrotation Yrotation Zrotation
					JOINT left_foot_ee
					{
						OFFSET	-22.5	-16.5	-42.2
						CHANNELS 3  Xrotation Yrotation Zrotation
						End Site
						{
							OFFSET	1	0	0
						}
					}
				}
			}
		}
	}
	JOINT right_hip
	{
		OFFSET	82.8	-127.5	0.300001
		CHANNELS 3  Xrotation Yrotation Zrotation
		JOINT right_knee
		{
			OFFSET	28.2	-396.7	2.2
			CHANNELS 3  Xrotation Yrotation Zrotation
			JOINT right_ankle
			{
				OFFSET	11.7	-411.3	35.4
				CHANNELS 3  Xrotation Yrotation Zrotation
				JOINT right_toes
				{
					OFFSET	0	-60	-88.6
					CHANNELS 3  Xrotation Yrotation Zrotation
					JOINT right_foot_ee
					{
						OFFSET	22.5	-16.5	-42.2
						CHANNELS 3  Xrotation Yrotation Zrotation
						End Site
						{
							OFFSET	1	0	0
						}
					}
				}
			}
		}
	}
}
MOTION
Frames: 6
Frame Time: 0.02
429.249947174 711.806 -1186.61635095 -144.437672906 -8.32251496812 -178.751361559 14.169 0.512687 3.61983 14.1763 0.281466 3.64507 14.1694 0.411573 3.63269 14.1523 0.979769 3.52234 -19.3098 6.13896 -4.25778 -19.5349 14.036 -1.4417 -0.0 0.0 -0.0 -4.9201 18.2945 -5.3629 -17.0201 -46.6952 59.3224 0.659897 -18.1023 0.105123 31.1269 0.0301543 -3.92762 2.34105 -28.927 2.67984 -0.0 0.0 -0.0 10.0255 -1.56772 -19.6228 71.1027 -76.6743 8.89652 0.4743 13.2223 -0.0549722 84.9457 4.42002 8.86362 -3.58533 -17.1194 15.0783 0.0 0.0 0.0 47.3434 16.7717 5.36787 -31.153 -0.00182227 4.72244 33.62 17.1756 -4.34834 20.9879 -0.0 -0.0 -0.0 0.0 -0.0 54.441 17.3006 2.70341 -24.7035 -0.210236 -3.75586 42.5708 -25.4899 5.42512 -32.5847 0.0 0.0 0.0 0.0 0.0 
430.972231782 713.597 -1182.66997751 -144.889010512 -7.24904992875 -179.663094929 14.0512 0.485995 3.94378 14.0598 0.23426 3.96666 14.0469 0.367401 3.95657 14.0265 0.987194 3.84917 -19.5009 5.98229 -4.59301 -19.7167 13.8956 -1.79793 -0.0 0.0 -0.0 -5.13794 17.051 -6.01812 -15.3955 -48.0852 58.8763 0.697019 -19.0489 0.116948 25.7294 0.178487 -3.25438 1.69673 -28.6841 -1.28199 -0.0 0.0 -0.0 9.73282 -3.20601 -18.9307 68.5882 -76.0263 6.62457 0.419131 11.7296 -0.043053 83.6517 4.26582 8.80207 -3.4589 -16.9961 14.3495 0.0 0.0 0.0 46.9685 14.5846 5.2944 -30.0769 0.0411146 4.56287 34.627 14.247 -4.41168 16.8437 -0.0 -0.0 -0.0 0.0 -0.0 53.8523 17.7147 2.22754 -20.6047 -0.28796 -3.13182 42.5119 -24.9355 5.4003 -39.3971 0.0 0.0 0.0 0.0 0.0 
430.460189357 713.597 -1181.76798549 -144.978198114 -6.16893945127 179.573531831 14.0512 0.485995 3.94378 14.0598 0.23426 3.96666 14.0469 0.367401 3.95657 14.0265 0.987194 3.84917 -19.5009 5.98229 -4.59301 -19.7167 13.8956 -1.79793 -0.0 0.0 -0.0 -5.13794 17.051 -6.01812 -15.3955 -48.0852 58.8763 0.697019 -19.0489 0.116948 25.7294 0.178487 -3.25438 1.69673 -28.6841 -1.28199 -0.0 0.0 -0.0 9.73282 -3.20601 -18.9307 68.5882 -76.0263 6.62457 0.419131 11.7296 -0.043053 83.6517 4.26582 8.80207 -3.4589 -16.9961 14.3495 0.0 0.0 0.0 46.9685 14.5846 5.2944 -30.0769 0.0411146 4.56287 34.627 14.247 -4.41168 16.8437 -0.0 -0.0 -0.0 0.0 -0.0 53.8523 17.7147 2.22754 -20.6047 -0.28796 -3.13182 42.5119 -24.9355 5.4003 -39.3971 0.0 0.0 0.0 0.0 0.0 
438.889642182 725.944 -1157.42195299 -144.952507473 -6.02314353649 179.895154338 14.2119 0.533128 4.25688 14.222 0.261426 4.28212 14.2072 0.417276 4.26977 14.1834 1.08579 4.15065 -20.754 6.44145 -8.0428 -21.0002 16.3974 -4.6594 -0.0 0.0 -0.0 -4.23492 15.3014 -4.99028 -10.0314 -42.3043 60.9796 0.864547 -23.1838 0.177342 21.3585 0.251744 -2.70098 -0.496392 -28.6384 -15.3304 -0.0 0.0 -0.0 8.84345 -12.7739 -16.4641 49.8113 -72.3638 -7.9509 0.381828 10.711 -0.0357942 82.1523 4.08891 8.72641 -2.74313 -7.60434 14.807 0.0 0.0 0.0 43.187 30.6289 3.38493 -22.9059 0.24982 3.48286 40.4989 7.50133 -4.90571 0.900266 -0.0 -0.0 -0.0 0.0 -0.0 59.5892 24.8916 -2.23077 -29.8977 -0.0479705 -4.53623 39.9702 -26.3944 5.2124 -29.0463 0.0 0.0 0.0 0.0 0.0 
439.04654763 725.944 -1157.58041007 -144.9407513 -6.17989683674 -179.994241583 14.2119 0.533128 4.25688 14.222 0.261426 4.28212 14.2072 0.417276 4.26977 14.1834 1.08579 4.15065 -20.754 6.44145 -8.0428 -21.0002 16.3974 -4.6594 -0.0 0.0 -0.0 -4.23492 15.3014 -4.99028 -10.0314 -42.3043 60.9796 0.864547 -23.1838 0.177342 21.3585 0.251744 -2.70098 -0.496392 -28.6384 -15.3304 -0.0 0.0 -0.0 8.84345 -12.7739 -16.4641 49.8113 -72.3638 -7.9509 0.381828 10.711 -0.0357942 82.1523 4.08891 8.72641 -2.74313 -7.60434 14.807 0.0 0.0 0.0 43.187 30.6289 3.38493 -22.9059 0.24982 3.48286 40.4989 7.50133 -4.90571 0.900266 -0.0 -0.0 -0.0 0.0 -0.0 59.5892 24.8916 -2.23077 -29.8977 -0.0479705 -4.53623 39.9702 -26.3944 5.2124 -29.0463 0.0 0.0 0.0 0.0 0.0 
439.703993453 725.944 -1158.25606116 -144.887643383 -6.84232179817 -179.525911098 14.2119 0.533128 4.25688 14.222 0.261426 4.28212 14.2072 0.417276 4.26977 14.1834 1.08579 4.15065 -20.754 6.44145 -8.0428 -21.0002 16.3974 -4.6594 -0.0 0.0 -0.0 -4.23492 15.3014 -4.99028 -10.0314 -42.3043 60.9796 0.864547 -23.1838 0.177342 21.3585 0.251744 -2.70098 -0.496392 -28.6384 -15.3304 -0.0 0.0 -0.0 8.84345 -12.7739 -16.4641 49.8113 -72.3638 -7.9509 0.381828 10.711 -0.0357942 82.1523 4.08891 8.72641 -2.74313 -7.60434 14.807 0.0 0.0 0.0 43.187 30.6289 3.38493 -22.9059 0.24982 3.48286 40.4989 7.50133 -4.90571 0.900266 -0.0 -0.0 -0.0 0.0 -0.0 59.5892 24.8916 -2.23077 -29.8977 -0.0479705 -4.53623 39.9702 -26.3944 5.2124 -29.0463 0.0 0.0 0.0 0.0 0.0 
